grf
version=1
nRows=9
nColumns=37
inDegrees=no
endheader
time	ground_force_1_vx	ground_force_1_vy	ground_force_1_vz	ground_force_1_px	ground_force_1_py	ground_force_1_pz	ground_moment_1_mx	ground_moment_1_my	ground_moment_1_mz	ground_force_2_vx	ground_force_2_vy	ground_force_2_vz	ground_force_2_px	ground_force_2_py	ground_force_2_pz	ground_moment_2_mx	ground_moment_2_my	ground_moment_2_mz	ground_force_3_vx	ground_force_3_vy	ground_force_3_vz	ground_force_3_px	ground_force_3_py	ground_force_3_pz	ground_moment_3_mx	ground_moment_3_my	ground_moment_3_mz	ground_force_4_vx	ground_force_4_vy	ground_force_4_vz	ground_force_4_px	ground_force_4_py	ground_force_4_pz	ground_moment_4_mx	ground_moment_4_my	ground_moment_4_mz
      4.20000000	      0.00000000	     -0.00000000	      0.00000000	      0.00000000	      0.00000000	      0.00000000	      0.00000000	      0.00000000	      0.00000000	      3.63797426	     32.16701126	   -391.20367432	   -314.04223899	  -1128.17108015	      0.00000000	      0.00000000	      0.00000000	  12175.33687561	     -0.79839983	    -31.61916344	   -390.70068359	   -329.81901694	   -728.75058947	      0.00000000	      0.00000000	     -0.00000000	 -14496.62118971	      0.00000000	     -0.00000000	      0.00000000	      0.00000000	      0.00000000	      0.00000000	      0.00000000	      0.00000000	      0.00000000
      4.21000000	      0.00000000	     -0.00000000	      0.00000000	      0.00000000	      0.00000000	      0.00000000	      0.00000000	      0.00000000	      0.00000000	      3.94499183	     32.25577927	   -392.02972412	   -314.08166725	  -1128.54823739	      0.00000000	      0.00000000	      0.00000000	  12299.81287980	     -0.70063947	    -31.18656534	   -389.77151489	   -330.40816141	   -730.29363705	      0.00000000	     -0.00000000	     -0.00000000	 -14428.94620979	      0.00000000	     -0.00000000	      0.00000000	      0.00000000	      0.00000000	      0.00000000	      0.00000000	      0.00000000	      0.00000000
      4.22000000	      0.00000000	     -0.00000000	      0.00000000	      0.00000000	      0.00000000	      0.00000000	      0.00000000	      0.00000000	      0.00000000	      3.73683548	     31.97803116	   -390.89181519	   -314.47380122	  -1128.88227682	      0.00000000	      0.00000000	      0.00000000	  12085.28878929	     -0.39409266	    -31.17674824	   -390.58322144	   -329.65507360	   -729.10960905	      0.00000000	     -0.00000000	     -0.00000000	 -14412.30078500	      0.00000000	     -0.00000000	      0.00000000	      0.00000000	      0.00000000	      0.00000000	      0.00000000	      0.00000000	      0.00000000
      4.23000000	      0.00000000	     -0.00000000	      0.00000000	      0.00000000	      0.00000000	      0.00000000	      0.00000000	      0.00000000	      0.00000000	      4.37131500	     31.91883087	   -391.00866699	   -314.62441983	  -1129.58962650	      0.00000000	      0.00000000	      0.00000000	  12119.76801107	     -0.68022956	    -31.56033701	   -390.27398682	   -330.56438436	   -729.32805978	      0.00000000	      0.00000000	     -0.00000000	 -14451.65217654	      0.00000000	     -0.00000000	      0.00000000	      0.00000000	      0.00000000	      0.00000000	      0.00000000	      0.00000000	      0.00000000
      4.24000000	      0.00000000	     -0.00000000	      0.00000000	      0.00000000	      0.00000000	      0.00000000	      0.00000000	      0.00000000	      0.00000000	      4.64837265	     32.20542145	   -388.89276123	   -314.56455322	  -1129.11391924	      0.00000000	      0.00000000	      0.00000000	  12315.59859972	     -0.19719185	    -31.82557104	   -392.48437500	   -330.42136632	   -729.14142415	      0.00000000	      0.00000000	     -0.00000000	 -14497.65442681	      0.00000000	     -0.00000000	      0.00000000	      0.00000000	      0.00000000	      0.00000000	      0.00000000	      0.00000000	      0.00000000
      4.25000000	      0.00000000	     -0.00000000	      0.00000000	      0.00000000	      0.00000000	      0.00000000	      0.00000000	      0.00000000	      0.00000000	      4.93573427	     31.86868286	   -388.69262695	   -314.50013913	  -1128.52992836	      0.00000000	      0.00000000	      0.00000000	  12261.53923450	     -0.44355670	    -31.70748516	   -391.94113159	   -330.84609737	   -729.69821099	      0.00000000	     -0.00000000	     -0.00000000	 -14475.02531653	      0.00000000	     -0.00000000	      0.00000000	      0.00000000	      0.00000000	      0.00000000	      0.00000000	      0.00000000	      0.00000000
      4.26000000	      0.00000000	     -0.00000000	      0.00000000	      0.00000000	      0.00000000	      0.00000000	      0.00000000	      0.00000000	      0.00000000	      4.84630489	     32.02912140	   -390.81112671	   -315.21464046	  -1129.42585662	      0.00000000	      0.00000000	      0.00000000	  12203.51609361	     -0.33493430	    -31.72731015	   -393.40850830	   -330.41969798	   -729.34864002	      0.00000000	      0.00000000	     -0.00000000	 -14498.69479929	      0.00000000	     -0.00000000	      0.00000000	      0.00000000	      0.00000000	      0.00000000	      0.00000000	      0.00000000	      0.00000000
      4.27000000	      0.00000000	     -0.00000000	      0.00000000	      0.00000000	      0.00000000	      0.00000000	      0.00000000	      0.00000000	      0.00000000	      5.62882042	     32.20476913	   -389.44375610	   -315.35321789	  -1129.13658851	      0.00000000	      0.00000000	      0.00000000	  12311.00758386	     -0.21739080	    -31.65021704	   -392.52505493	   -331.06557472	   -729.42636812	      0.00000000	      0.00000000	     -0.00000000	 -14530.17496044	      0.00000000	     -0.00000000	      0.00000000	      0.00000000	      0.00000000	      0.00000000	      0.00000000	      0.00000000	      0.00000000
      4.28000000	      0.00000000	     -0.00000000	      0.00000000	      0.00000000	      0.00000000	      0.00000000	      0.00000000	      0.00000000	      0.00000000	      5.68923759	     31.67346382	   -388.93124390	   -315.50250410	  -1128.92399497	      0.00000000	      0.00000000	      0.00000000	  12303.01194067	     -0.68963425	    -31.90409464	   -392.40090942	   -331.31925445	   -729.62680205	      0.00000000	      0.00000000	     -0.00000000	 -14355.17985480	      0.00000000	     -0.00000000	      0.00000000	      0.00000000	      0.00000000	      0.00000000	      0.00000000	      0.00000000	      0.00000000
